<?xml version="1.0" standalone="no"?>
<!DOCTYPE svg PUBLIC "-//W3C//DTD SVG 20010904//EN"
 "http://www.w3.org/TR/2001/REC-SVG-20010904/DTD/svg10.dtd">
<svg version="1.0" xmlns="http://www.w3.org/2000/svg"
 width="83.000000pt" height="83.000000pt" viewBox="0 0 83.000000 83.000000"
 preserveAspectRatio="xMidYMid meet">
<metadata>
Created by potrace 1.10, written by Peter Selinger 2001-2011
</metadata>
<g transform="translate(0.000000,83.000000) scale(0.100000,-0.100000)"
fill="#000000" stroke="none">
<path d="M317 819 c-95 -22 -199 -99 -256 -187 -73 -115 -81 -276 -20 -400 64
-130 191 -220 322 -227 l62 -4 -65 9 c-92 13 -177 59 -243 130 -78 84 -101
147 -102 275 0 92 3 105 32 167 161 340 655 303 758 -56 25 -85 17 -203 -18
-279 -54 -118 -178 -214 -307 -237 l-55 -9 59 5 c123 10 249 104 309 231 30
64 32 75 32 178 0 104 -2 114 -33 177 -54 110 -167 201 -284 228 -52 12 -139
11 -191 -1z"/>
<path d="M650 816 c0 -2 7 -7 16 -10 8 -3 12 -2 9 4 -6 10 -25 14 -25 6z"/>
<path d="M373 787 c0 -8 6 -14 14 -14 7 0 13 6 13 14 0 7 -6 13 -13 13 -8 0
-14 -6 -14 -13z"/>
<path d="M417 794 c-8 -8 1 -24 14 -24 5 0 9 7 9 15 0 15 -12 20 -23 9z"/>
<path d="M470 780 c10 -19 8 -20 -49 -20 -33 0 -81 -7 -107 -16 -33 -11 -49
-13 -57 -5 -8 8 -7 15 2 24 10 10 11 9 6 -4 -5 -13 -1 -15 19 -12 17 4 23 10
19 22 -3 9 -2 12 4 6 10 -13 28 -13 40 -1 5 5 3 6 -4 2 -7 -4 -13 -3 -13 3 0
10 -19 9 -37 -2 -7 -5 -17 -6 -22 -3 -4 3 -19 -3 -31 -14 -13 -11 -28 -20 -34
-20 -30 -1 -88 -80 -59 -80 13 0 52 42 49 54 -2 6 -1 8 1 4 3 -4 16 -3 30 3
36 14 41 3 6 -14 -40 -21 -111 -100 -132 -148 -10 -21 -20 -36 -24 -33 -3 3
-3 12 0 20 5 14 -18 20 -30 8 -8 -8 12 -46 21 -40 4 2 7 -39 7 -92 0 -84 4
-105 27 -154 31 -68 98 -136 165 -169 41 -20 63 -24 148 -24 118 0 171 20 245
95 65 64 92 128 98 225 5 104 -19 173 -89 249 -47 52 -134 106 -169 106 -9 0
-16 9 -17 23 -2 19 -1 20 8 5 6 -10 15 -18 22 -18 7 0 6 4 -3 10 -13 9 -13 10
0 11 10 0 8 3 -5 9 -36 15 -47 12 -35 -10z m-78 -42 c-7 -7 -12 -20 -12 -30 0
-11 -20 -30 -50 -49 -84 -51 -179 -220 -180 -316 0 -96 91 -183 193 -183 23 0
27 -4 27 -28 0 -15 6 -34 13 -41 10 -11 4 -12 -31 -7 -98 15 -202 97 -245 194
-31 71 -34 173 -8 243 28 74 71 132 122 166 65 43 205 85 171 51z m164 -23
c118 -53 184 -151 192 -284 3 -62 0 -87 -18 -135 -41 -108 -149 -198 -257
-213 -43 -6 -46 -5 -38 13 4 10 10 29 12 41 4 17 15 23 53 28 56 8 144 57 174
98 16 21 21 43 21 85 -1 111 -107 280 -200 318 -33 14 -45 25 -45 40 0 11 -6
26 -12 33 -19 20 54 5 118 -24z m-116 -16 c0 -14 -7 -19 -25 -19 -27 0 -31 10
-14 41 8 16 13 18 25 8 8 -6 14 -20 14 -30z m-270 -9 c-6 -11 -13 -20 -16 -20
-2 0 0 9 6 20 6 11 13 20 16 20 2 0 0 -9 -6 -20z m181 -46 c-12 -9 -34 -41
-50 -72 -15 -32 -48 -96 -74 -143 -26 -47 -47 -92 -47 -99 0 -7 13 11 28 41
124 235 162 296 162 257 0 -24 -59 -139 -106 -206 -24 -35 -53 -81 -64 -103
-21 -41 -36 -52 -25 -20 3 11 1 22 -5 26 -12 8 -13 45 -1 45 5 0 7 8 4 19 -7
26 56 158 98 205 35 40 89 79 98 70 3 -2 -5 -12 -18 -20z m49 6 c-8 -5 -17 -7
-19 -4 -3 3 1 9 9 14 8 5 17 7 19 4 3 -3 -1 -9 -9 -14z m80 -2 c12 -13 34 -45
49 -73 15 -27 49 -85 76 -128 40 -65 50 -88 53 -136 2 -32 0 -61 -4 -64 -5 -3
-9 14 -9 37 0 34 -10 58 -52 122 -29 43 -66 110 -83 148 -17 37 -33 66 -36 64
-9 -9 49 -124 101 -203 30 -44 57 -92 60 -106 8 -33 -9 -39 -116 -39 -75 0
-77 1 -83 26 -8 30 1 45 14 25 6 -11 15 -8 39 17 41 41 42 89 3 133 -28 31
-29 31 -54 15 -31 -20 -34 -16 -44 74 -5 50 -4 64 11 80 29 32 43 10 34 -52
-4 -29 -8 -62 -8 -72 -2 -35 12 -7 20 41 4 27 10 55 14 64 3 9 -1 23 -10 33
-9 9 -12 16 -6 16 6 0 20 -10 31 -22z m56 -17 c73 -45 165 -241 148 -318 l-8
-38 -3 35 c-5 49 -20 84 -73 167 -122 193 -120 188 -64 154z m-138 -181 c7
-25 10 -29 11 -13 1 12 10 27 21 33 18 10 19 9 10 -15 -7 -17 -7 -24 0 -20 6
3 10 1 10 -4 0 -6 -7 -11 -15 -11 -20 0 -19 -29 1 -37 13 -5 13 -8 2 -15 -10
-8 -9 -9 4 -5 9 3 22 -1 30 -10 11 -14 10 -15 -7 -10 -31 10 -48 -7 -43 -42 3
-23 1 -31 -11 -32 -13 -1 -12 -2 2 -6 13 -3 17 -15 17 -49 0 -24 -5 -44 -11
-44 -5 0 -8 4 -5 9 11 17 -20 29 -89 33 -38 3 -79 8 -90 12 -11 3 -6 0 10 -8
17 -8 57 -15 91 -16 49 0 61 -3 61 -16 0 -14 -9 -16 -59 -11 -60 5 -125 35
-121 56 2 6 -2 11 -7 11 -6 0 -10 5 -10 10 0 7 6 7 19 0 22 -11 92 -13 139 -4
24 5 33 13 38 38 5 17 9 34 10 39 1 4 2 8 3 10 9 10 9 47 1 47 -6 0 -10 7 -10
15 0 8 -5 15 -11 15 -6 0 -9 7 -5 15 7 20 -4 19 -20 -2 -7 -10 -15 -15 -19
-12 -7 8 4 59 14 57 16 -2 22 3 16 13 -11 17 -44 -20 -51 -56 -7 -37 15 -89
45 -104 30 -16 16 -57 -21 -65 -45 -9 -93 -7 -123 4 -23 9 -26 14 -21 38 4 15
29 60 57 99 27 40 64 103 82 140 l32 68 7 -60 c3 -34 11 -76 16 -95z m78 21
c-3 -5 2 -12 11 -15 15 -6 15 -8 3 -16 -12 -8 -12 -10 1 -15 18 -7 14 -54 -4
-51 -26 4 -38 18 -28 30 6 7 9 23 6 36 -4 22 1 40 11 40 3 0 3 -4 0 -9z m-80
-92 c16 -18 16 -19 -11 -19 -20 0 -26 4 -21 16 3 8 2 12 -3 9 -5 -3 -12 -2
-15 3 -10 17 33 10 50 -9z m0 -48 c0 -11 -4 -17 -8 -15 -4 3 -8 12 -8 20 0 8
4 14 8 14 4 0 8 -9 8 -19z m223 -85 c15 -18 -16 -41 -85 -62 -65 -19 -84 -18
-84 6 0 19 4 20 48 14 33 -4 58 -1 82 10 21 9 25 13 10 9 -27 -6 -29 -6 -102
-4 -41 1 -48 4 -48 21 0 18 7 20 84 20 60 0 87 -4 95 -14z m-189 -108 c0 -13
-5 -30 -10 -38 -9 -13 -12 -12 -25 4 -24 31 -19 56 10 56 19 0 25 -5 25 -22z"/>
<path d="M180 601 c0 -6 4 -13 10 -16 6 -3 7 1 4 9 -7 18 -14 21 -14 7z"/>
<path d="M146 527 c3 -10 9 -15 12 -12 3 3 0 11 -7 18 -10 9 -11 8 -5 -6z"/>
<path d="M326 127 c3 -10 9 -15 12 -12 3 3 0 11 -7 18 -10 9 -11 8 -5 -6z"/>
<path d="M615 629 c-4 -6 -5 -12 -2 -15 2 -3 7 2 10 11 7 17 1 20 -8 4z"/>
<path d="M650 570 c8 -5 20 -10 25 -10 6 0 3 5 -5 10 -8 5 -19 10 -25 10 -5 0
-3 -5 5 -10z"/>
<path d="M396 241 c-4 -5 -2 -12 3 -15 5 -4 12 -2 15 3 4 5 2 12 -3 15 -5 4
-12 2 -15 -3z"/>
<path d="M465 240 c3 -5 8 -10 11 -10 2 0 4 5 4 10 0 6 -5 10 -11 10 -5 0 -7
-4 -4 -10z"/>
<path d="M470 190 c0 -5 5 -10 11 -10 5 0 7 5 4 10 -3 6 -8 10 -11 10 -2 0 -4
-4 -4 -10z"/>
<path d="M530 771 c0 -18 4 -22 20 -18 11 3 20 2 20 -3 0 -4 18 -19 39 -33 53
-36 134 -122 136 -147 2 -20 30 -86 39 -92 8 -5 7 -8 -1 -8 -7 0 -13 -4 -13
-10 0 -17 18 -11 25 9 7 22 -4 53 -16 45 -5 -3 -9 -1 -9 5 0 5 4 13 10 16 6 3
0 20 -13 40 -12 18 -26 31 -30 28 -5 -3 -6 3 -3 13 7 23 -59 104 -67 82 -3 -8
-6 -6 -6 6 -1 11 -6 16 -15 13 -8 -3 -19 5 -26 18 -7 13 -18 21 -26 18 -8 -3
-14 0 -14 7 0 6 -6 10 -12 7 -7 -2 -18 3 -25 12 -11 14 -12 13 -13 -8z m199
-144 c-2 -3 -15 10 -28 27 l-24 31 28 -27 c16 -15 27 -29 24 -31z"/>
<path d="M106 651 c-4 -6 -4 -11 1 -11 4 0 1 -5 -7 -10 -11 -7 -11 -10 -2 -10
7 0 10 -5 7 -10 -4 -6 -11 -7 -17 -4 -6 4 -14 0 -19 -7 -13 -20 -11 -29 5 -29
21 0 61 69 48 82 -6 6 -12 6 -16 -1z"/>
<path d="M30 471 c-7 -14 -7 -22 1 -27 8 -4 7 -9 -2 -15 -12 -7 -12 -9 0 -9
10 0 11 -3 3 -13 -10 -12 -9 -30 3 -87 2 -8 4 -17 5 -20 1 -3 2 -8 1 -12 0 -5
4 -8 10 -8 5 0 7 -5 4 -10 -4 -6 -1 -9 7 -8 7 2 12 -5 12 -14 -1 -10 4 -14 12
-11 11 4 10 9 -2 28 -9 13 -15 25 -13 27 5 7 -13 48 -22 48 -5 0 -9 8 -9 18 0
14 2 15 10 2 7 -12 9 -10 7 8 -1 15 -6 21 -16 17 -11 -4 -11 -3 -2 9 7 8 14
26 17 40 3 21 1 24 -13 20 -17 -5 -17 -5 0 6 18 12 23 30 7 30 -5 0 -14 -9
-20 -19z m34 -167 c5 -14 4 -15 -9 -4 -17 14 -19 20 -6 20 5 0 12 -7 15 -16z"/>
<path d="M779 428 c-1 -3 -7 -69 -11 -115 -1 -13 -6 -23 -11 -23 -5 0 -6 -8
-3 -17 4 -9 1 -20 -6 -25 -10 -6 -8 -8 5 -8 18 0 19 1 21 40 0 14 6 28 11 32
6 5 5 8 -3 8 -7 0 -10 5 -7 10 4 6 11 7 17 4 6 -4 8 7 5 32 -3 21 -1 44 5 51
8 10 6 13 -6 13 -9 0 -16 -1 -17 -2z"/>
<path d="M104 213 c3 -6 1 -15 -4 -18 -8 -5 -6 -13 6 -26 9 -10 21 -16 25 -13
5 3 9 -2 9 -10 0 -10 6 -13 15 -10 11 4 13 2 9 -9 -4 -12 0 -14 18 -10 18 4
20 2 9 -5 -12 -9 -9 -13 15 -24 16 -7 32 -17 35 -22 4 -5 12 -5 18 -2 15 10
-29 46 -47 39 -7 -3 -12 -2 -11 3 1 5 -21 34 -51 64 -29 30 -50 50 -46 43z
m22 -39 c2 -12 -1 -13 -12 -3 -7 6 -11 16 -8 21 7 11 17 3 20 -18z"/>
<path d="M706 198 c-12 -17 -13 -24 -3 -30 6 -4 9 -8 5 -9 -5 -1 -11 -2 -15
-3 -5 -1 -17 -7 -28 -13 -14 -9 -16 -13 -5 -13 13 0 13 -1 0 -10 -20 -13 -33
-12 -24 2 4 7 3 8 -4 4 -17 -10 -15 -26 3 -26 22 0 93 68 91 88 0 9 5 16 12
14 8 -1 11 2 7 8 -10 16 -23 12 -39 -12z"/>
<path d="M95 91 c-6 -11 13 -26 22 -17 4 3 1 6 -6 6 -7 0 -9 5 -6 10 3 6 4 10
1 10 -3 0 -7 -4 -11 -9z"/>
<path d="M600 90 c0 -5 5 -10 11 -10 5 0 7 5 4 10 -3 6 -8 10 -11 10 -2 0 -4
-4 -4 -10z"/>
<path d="M560 81 c0 -5 7 -11 14 -14 10 -4 13 -1 9 9 -6 15 -23 19 -23 5z"/>
<path d="M513 67 c-35 -12 -41 -21 -21 -33 7 -4 8 -3 4 4 -9 16 7 15 22 0 7
-7 13 -9 13 -5 1 4 2 10 3 15 1 4 5 13 9 20 5 6 7 11 5 11 -2 -1 -18 -7 -35
-12z"/>
<path d="M290 53 c0 -15 2 -16 10 -3 8 13 10 13 10 -2 0 -13 8 -16 35 -14 19
2 35 -1 35 -5 0 -5 7 -9 15 -9 8 0 15 6 15 13 0 8 4 7 10 -3 8 -12 10 -12 10
-1 0 10 3 11 13 2 10 -8 14 -7 14 2 0 9 -15 13 -47 13 -26 1 -52 4 -59 9 -8 4
-16 2 -21 -5 -5 -8 -9 -7 -13 4 -8 21 -27 20 -27 -1z"/>
</g>
</svg>
